#!OML:ASF I:\Actors\actors\Patient Classification 2\Patient 1\Session 1\actor1.ASF
:FULLY-SPECIFIED
:DEGREES
116
root -0.742958 18.6634 5.93399 1.19858 -3.006 -1.94459
lowerback 4.41587 0.878159 -1.5674
upperback -1.7038 1.09938 0.569016
thorax -4.27737 0.597055 1.37824
lowerneck -12.7407 1.86194 2.67371
upperneck 21.9548 1.84157 0.659017
head 9.00271 1.15602 -0.0135591
rclavicle -1.0256e-014 -1.98785e-016
rhumerus -40.0556 14.5801 -92.1377
rradius 31.84
rwrist -4.12611
rhand -3.54638 -37.7471
rfingers 7.12502
rthumb 22.1895 -66.4935
lclavicle -1.0256e-014 -1.98785e-016
lhumerus -43.9299 3.77406 86.2368
lradius 41.9159
lwrist -6.04288
lhand 0.742303 -22.9598
lfingers 7.12502
lthumb 26.3012 5.23687
rfemur 7.60388 3.19828 15.6332
rtibia 7.95139e-015
rfoot -15.9424 -9.54601
rtoes -11.2866
lfemur -4.14741 -3.31388 -12.4164
ltibia 22.3385
lfoot -21.9812 11.4306
ltoes -55.8555
117
root -0.743677 18.664 5.93292 1.19972 -3.02341 -1.95304
lowerback 4.43197 0.886813 -1.57244
upperback -1.70643 1.11048 0.571455
thorax -4.28979 0.602851 1.38242
lowerneck -12.7158 1.66168 2.42188
upperneck 21.8482 1.58467 0.80954
head 8.95435 1.02985 0.0493286
rclavicle 1.56077e-015 1.98785e-015
rhumerus -40.0665 14.5739 -92.1441
rradius 31.8261
rwrist -4.06384
rhand -3.56037 -37.7337
rfingers 7.12502
rthumb 22.1761 -66.4817
lclavicle 1.56077e-015 1.98785e-015
lhumerus -43.9333 3.78849 86.2323
lradius 41.9017
lwrist -5.97106
lhand 0.158973 -23.1172
lfingers 7.12502
lthumb 25.7426 5.16159
rfemur 7.59511 3.21528 15.6463
rtibia -6.36111e-015
rfoot -15.963 -9.52546
rtoes -11.0151
lfemur -4.15736 -3.28056 -12.404
ltibia 22.3509
lfoot -21.9792 11.4495
ltoes -55.8804
118
root -0.744193 18.6632 5.93234 1.16934 -3.04289 -1.95973
lowerback 4.46226 0.889156 -1.60229
upperback -1.6927 1.11204 0.588241
thorax -4.29373 0.604611 1.41608
lowerneck -12.6692 1.46127 2.19512
upperneck 21.7232 1.33891 0.891215
head 8.89762 0.903382 0.0858103
rclavicle 5.14355e-015 -9.34288e-015
rhumerus -40.072 14.6264 -92.1446
rradius 31.8156
rwrist -4.04219
rhand -3.54788 -37.685
rfingers 7.12502
rthumb 22.1881 -66.4316
lclavicle 5.14355e-015 -9.34288e-015
lhumerus -43.9524 3.78318 86.2629
lradius 41.9059
lwrist -5.84596
lhand -0.33472 -23.292
lfingers 7.12502
lthumb 25.2697 5.05447
rfemur 7.62425 3.23683 15.6578
rtibia -2.8625e-014
rfoot -15.9871 -9.52727
rtoes -10.7823
lfemur -4.12667 -3.30139 -12.4001
ltibia 22.3696
lfoot -22.0259 11.472
ltoes -55.8594
119
root -0.744501 18.6617 5.93221 1.13188 -3.03445 -1.99851
lowerback 4.46317 0.876426 -1.5913
upperback -1.65335 1.09678 0.6121
thorax -4.25307 0.596465 1.43612
lowerneck -12.6567 1.27684 1.97032
upperneck 21.5696 1.11708 0.96133
head 8.83855 0.786883 0.121103
rclavicle 2.75814e-015 1.39149e-015
rhumerus -40.0283 14.6948 -92.1494
rradius 31.7872
rwrist -4.0536
rhand -3.48772 -37.655
rfingers 7.12502
rthumb 22.2458 -66.3947
lclavicle 2.75814e-015 1.39149e-015
lhumerus -43.9064 3.84528 86.2647
lradius 41.8862
lwrist -5.856
lhand -0.374979 -23.2266
lfingers 7.12502
lthumb 25.2312 5.12524
rfemur 7.67081 3.23159 15.705
rtibia -1.11319e-014
rfoot -15.9746 -9.54989
rtoes -10.8419
lfemur -4.08424 -3.30885 -12.3558
ltibia 22.3733
lfoot -22.0449 11.4356
ltoes -55.8098
120
root -0.744291 18.6619 5.93182 1.12286 -3.00729 -1.99408
lowerback 4.4315 0.865027 -1.57852
upperback -1.61374 1.08236 0.59816
thorax -4.19288 0.587992 1.41646
lowerneck -12.6606 1.06986 1.70277
upperneck 21.421 0.845605 1.15092
head 8.78432 0.656285 0.198712
rclavicle 3.93687e-016 1.19271e-014
rhumerus -39.9662 14.7325 -92.173
rradius 31.7445
rwrist -4.08384
rhand -3.41851 -37.5849
rfingers 7.12502
rthumb 22.3123 -66.3167
lclavicle 3.93687e-016 1.19271e-014
lhumerus -43.8324 3.90296 86.2298
lradius 41.8497
lwrist -5.93265
lhand -0.378306 -23.2623
lfingers 7.12502
lthumb 25.228 5.09002
rfemur 7.68718 3.20541 15.6983
rtibia 3.18055e-015
rfoot -15.9716 -9.53439
rtoes -10.7742
lfemur -4.07827 -3.28989 -12.3574
ltibia 22.3647
lfoot -22.015 11.3934
ltoes -55.8547
